<svg xmlns="http://www.w3.org/2000/svg" width="210" height="68" viewBox="0 0 210 68">
    <g fill="#424241" fill-rule="evenodd">
        <path d="M10.792.235C6.5 2.277 1.782 8.039.292 15.277c-1.887 9.168 5.966 13.045 6.61 11.776.758-1.495-1.407-2-1.853-6.757-.576-6.144 1.939-13.009 5.104-16.021.588-.56.56.22.56 1.66 0 2.577-.125 25.706-.125 30.533 0 6.532-.238 8.594-.664 10.632-.433 2.065-1.127 3.46-.601 3.999.588.601 3.1-.83 4.554-3.134 1.743-2.765 2.354-6.085 2.463-9.69.133-4.347.127-11.244.133-15.178.005-3.608.053-14.172-.056-20.524-.026-1.558-3.83-3.192-5.625-2.338zM208.738 34.548c-.623 0-.906.73-1.142 1.956-.815 4.267-1.672 5.23-2.777 5.23-1.234 0-2.344-2.113-2.629-6.341-.224-3.325-.188-9.447.099-15.536.058-1.252-.246-2.49-3.2-3.709-1.271-.524-3.12-1.296-4.04 1.227-2.599 7.127-3.617 12.786-3.856 15.084-.012.119-.14.143-.163-.135-.153-1.84-.494-5.186-.536-12.215-.008-1.372-.264-2.539-1.597-3.495-.864-.62-3.49-1.717-4.436-.412-.819 1.067-1.768 3.94-2.753 7.344-.802 2.766-1.36 4.638-1.36 4.638s.01-7.466.02-10.298c.005-1.068-.64-1.424-.835-1.489-.875-.288-2.6-.77-3.333-.77-.904 0-1.125.573-1.125 1.409 0 .11-.143 9.83-.143 16.626 0 .295 0 .617.002.96-.5 3.123-2.12 7.364-3.883 7.364-1.765 0-2.597-1.773-2.597-9.875 0-4.727.125-6.783.186-10.201.036-1.97.105-3.482.1-3.824-.013-1.053-1.615-1.583-2.36-1.78-.749-.197-1.4-.274-1.908-.24-.72.045-1.228.581-1.228 1.318 0 .396.004 1.147.004 1.147-.926-1.654-2.417-2.805-3.408-3.138-2.67-.9-5.457-.102-7.559 3.238-1.67 2.654-2.677 5.66-3.073 9.98-.29 3.157-.196 6.36.32 9.067-.623 3.056-1.778 4.308-3.043 4.308-1.836 0-3.168-3.404-3.013-9.293.102-3.873.784-6.59 1.53-10.522.318-1.677.06-2.554-.588-3.395-.595-.771-1.86-1.165-3.682-.68-1.296.345-3.15.717-4.846 1.002 0 0 .102-.464.186-1.281.441-4.29-3.662-3.941-4.97-2.571-.782.817-1.314 1.782-1.516 3.516-.32 2.752 1.656 4.05 1.656 4.05-.649 3.372-2.238 7.775-3.879 10.959-.878 1.706-1.551 2.97-2.419 4.314l-.007-1.499c-.02-7.087.063-12.665.1-14.676.036-1.969.105-3.44.101-3.784-.01-.77-.405-1.06-1.228-1.428a7.847 7.847 0 0 0-2.48-.63c-1.127-.099-1.806.58-1.788 1.382.003.152.003 1.082.003 1.082-.926-1.654-2.417-2.804-3.408-3.138-2.67-.9-5.457-.102-7.558 3.238-1.67 2.654-2.764 6.379-3.074 9.947-.289 3.325-.235 6.15.158 8.531-.425 2.384-1.645 4.877-3.026 4.877-1.764 0-2.769-1.773-2.769-9.876 0-4.726.125-6.781.186-10.2.036-1.97.105-3.482.101-3.825-.013-1.052-1.615-1.582-2.36-1.779-.78-.205-1.454-.28-1.97-.237-.683.058-1.163.752-1.163 1.27v1.192c-.926-1.654-2.417-2.804-3.408-3.138-2.67-.9-5.441-.09-7.558 3.238-1.381 2.17-2.499 4.575-3.074 9.9a37.832 37.832 0 0 0-.23 4.326c-.55 3.824-2.982 8.232-4.972 8.232-1.164 0-2.272-2.564-2.272-8.03 0-7.28.397-17.644.463-18.643 0 0 2.514-.049 3-.055 1.254-.016 2.39.018 4.06-.08.837-.048 1.644-3.462.78-3.884-.392-.191-3.161-.359-4.259-.385-.923-.024-3.492-.24-3.492-.24s.23-6.88.284-7.607c.046-.606-.644-.918-1.04-1.107-.962-.462-1.823-.684-2.843-.923-1.41-.33-2.05-.007-2.174 1.345-.189 2.05-.286 8.058-.286 8.058-1.035 0-4.568-.23-5.603-.23-.962 0-1.999 4.697-.67 4.754 1.53.068 4.195.126 5.961.186 0 0-.078 10.537-.078 13.79 0 .345 0 .678.003 1.002-.972 5.757-4.398 8.866-4.398 8.866.736-3.808-.767-6.668-3.473-9.089-.997-.892-2.965-2.58-5.167-4.432 0 0 1.275-1.428 2.406-4.3.802-2.036.836-4.364-1.131-4.878-3.25-.849-5.931 1.862-6.73 4.757-.62 2.243-.29 3.907.924 5.636.088.126.184.255.284.385-.734 1.606-1.742 3.769-2.596 5.446-2.37 4.657-4.16 8.34-5.513 8.34-1.081 0-1.066-3.74-1.066-7.24 0-3.019.196-7.557.352-12.255.052-1.554-.632-2.44-1.779-3.241-.696-.487-2.183-1.445-3.044-1.445-1.29 0-5.008.2-8.522 11.745-.443 1.455-1.313 4.106-1.313 4.106l.075-13.883c0-.326-.153-.64-.502-.856-.593-.365-2.174-1.112-3.58-1.112-.67 0-1.005.354-1.005 1.06l-.122 21.72c0 1.651.037 3.577.181 4.419.143.843.375 1.529.662 1.937.287.407.619.718 1.166.846.509.12 3.296.526 3.441-.684.174-1.45.18-3.019 1.644-8.867 2.278-9.107 5.249-13.55 6.646-15.127.244-.276.523-.293.51.159-.06 1.996-.27 6.985-.411 11.223-.379 11.342 1.438 13.444 4.034 13.444 1.986 0 4.785-2.242 7.786-7.915 1.871-3.536 3.688-7.003 4.993-9.501.91.956 1.93 1.985 2.95 3.085 2.37 2.555 3.149 4.983 2.633 7.287-.395 1.76-1.883 3.576-4.53 1.812-.771-.515-1.1-.912-1.876-1.493-.417-.311-1.053-.405-1.435-.078-.991.849-1.558 1.929-1.882 3.265-.314 1.3.832 1.988 2.021 2.59 1.024.517 3.223.986 4.626 1.04 5.466.207 9.846-2.998 12.894-11.267.546 7.14 2.868 11.182 6.903 11.182 2.697 0 5.402-3.96 6.585-7.857.34 1.589.842 2.97 1.49 4.137 3.11 5.596 9.141 4.391 12.171-.36.936-1.468 1.08-1.996 1.08-1.996.441 4.487 3.622 6.055 5.443 6.055 2.04 0 4.146-1.096 5.622-4.87.173.41.361.801.568 1.172 3.109 5.595 9.14 4.39 12.17-.36.142-.224.267-.426.375-.607l.088 2.947-2.788 2.906c-4.676 4.867-8.228 8.559-8.49 12.858-.331 5.481 3.58 7.519 6.544 7.786 3.142.283 5.837-1.69 7.492-4.452 1.456-2.43 2.408-7.661 2.339-12.828-.028-2.069-.074-4.7-.11-7.52a60.533 60.533 0 0 0 5.193-8.103c1.855-3.49 3.844-8.177 4.862-11.825 0 0 1.727.017 3.571-.12.59-.044.759.093.65.584-.131.593-2.33 10.222-.323 16.636 1.373 4.39 4.468 5.804 6.302 5.804 2.148 0 4.203-1.843 5.304-4.579.133.305.272.6.423.873 3.109 5.595 9.12 4.384 12.17-.36a14.715 14.715 0 0 0 1.08-1.996c.654 4.643 3.833 6.077 5.654 6.077 1.897 0 3.697-.883 5.157-4.808.06 1.729.157 3.141.308 3.587.093.272.632.614 1.024.78 1.735.73 3.505.385 4.16.234.453-.104.807-.517.855-1.584.127-2.803.049-7.51.797-11.01 1.255-5.872 2.426-8.15 2.982-9.278.31-.631.662-.736.674-.067.026 1.353.085 5.326.572 10.664.357 3.926.834 6.247 1.2 6.981 1.047 2.1 2.34 2.2 3.392 2.2.67 0 2.07-.21 1.945-1.547-.061-.65.045-4.677 1.283-10.462.808-3.778 2.156-7.191 2.642-8.44.18-.46.263-.097.26-.027-.103 2.602-.332 11.112.6 15.767 1.266 6.305 4.925 7.01 6.2 7.01 2.722 0 4.948-2.352 5.698-8.54.183-1.492-.085-2.642-.886-2.642zM94.706 30.722c-.156 3.275-.718 6.014-1.62 8.002-1.634 3.6-4.866 4.741-6.291-.46-1.027-3.75-.678-8.864-.25-11.626.634-4.1 2.222-7.007 4.702-6.731 2.546.283 3.785 4 3.46 10.815zm24.883.048c-.145 3.092-.851 6.2-1.621 7.955-1.59 3.624-4.913 4.757-6.29-.46-.942-3.566-.716-8.18-.25-11.086.604-3.773 2.07-7.272 4.701-7.272 2.56 0 3.82 3.188 3.46 10.863zm.65 21.1c-.035 5.642-.816 10.59-2.493 12.026-2.378 2.037-5.574.509-4.912-3.608.586-3.643 3.355-7.364 7.412-11.91 0 0 .008 1.037-.007 3.492zm42.953-21.068c-.138 3.396-.8 6.05-1.621 7.922-1.59 3.625-4.89 4.75-6.29-.46-.764-2.84-.8-7.583-.25-11.546.558-4.037 2.118-7.087 4.701-6.811 2.548.271 3.74 4 3.46 10.895z"/>
    </g>
</svg>
