<svg xmlns="http://www.w3.org/2000/svg" width="48" height="41" viewBox="0 0 48 41">
    <g fill="#272525" fill-rule="nonzero">
        <path d="M24 11.9c-6 0-10.85 4.85-10.85 10.85S18 33.6 24 33.6s10.85-4.85 10.85-10.85S30 11.9 24 11.9zm0 19.15c-4.6 0-8.3-3.75-8.3-8.3 0-4.6 3.75-8.3 8.3-8.3 4.6 0 8.3 3.75 8.3 8.3 0 4.6-3.7 8.3-8.3 8.3z"/>
        <path d="M39.85 4.6h-5.8L32.7 2.25C31.95.9 30.5.1 28.95.1h-9.9C17.5.1 16.1.9 15.3 2.25L13.95 4.6H7.8C3.7 4.6.3 8.25.3 12.5v20.6c0 4.35 3.55 7.9 7.9 7.9h31.75c4.35 0 7.9-3.55 7.9-7.9V12.5c-.1-4.4-3.65-7.9-8-7.9zm5.4 28.45c0 2.95-2.4 5.35-5.35 5.35H8.15C5.2 38.4 2.8 36 2.8 33.05v-20.6c0-2.85 2.25-5.35 5-5.35h7.6l2.1-3.65c.3-.55.9-.9 1.55-.9h9.9c.65 0 1.25.35 1.55.9l2.1 3.65h7.25c2.95 0 5.35 2.4 5.35 5.35v20.6h.05z"/>
    </g>
</svg>
