<svg xmlns="http://www.w3.org/2000/svg" width="49" height="44" viewBox="0 0 49 44">
    <path fill="#262626" fill-rule="nonzero" d="M24.193 44a1.558 1.558 0 0 1-1.108-.457L4.938 25.396l-.131-.138C-1.22 19.076-1.651 9.495 3.918 3.926 9.181-1.337 18.004-1.262 24.2 3.87c6.189-5.132 15.019-5.2 20.275.056 5.57 5.57 5.156 15.156-.926 21.364l-.125.137L25.3 43.543a1.558 1.558 0 0 1-1.108.457zM13.705 3.119a10.575 10.575 0 0 0-7.572 3.016c-4.38 4.38-3.936 11.97.951 16.964l.113.12 16.996 17.008 17.015-17.015.106-.113c4.887-5.006 5.313-12.596.945-16.958C37.89 1.78 30.288 2.2 25.3 7.08a1.64 1.64 0 0 1-2.21 0 13.535 13.535 0 0 0-9.386-3.961z"/>
</svg>
